<svg aria-roledescription="er" viewBox="0 0 471.4158630371094 298" style="max-width: 471.416px; background-color: white;" xmlns:xlink="http://www.w3.org/1999/xlink" xmlns="http://www.w3.org/2000/svg" width="100%" id="mermaid-0"><style>#mermaid-0{font-family:"trebuchet ms",verdana,arial,sans-serif;font-size:16px;fill:#000000;}#mermaid-0 .error-icon{fill:#552222;}#mermaid-0 .error-text{fill:#552222;stroke:#552222;}#mermaid-0 .edge-thickness-normal{stroke-width:2px;}#mermaid-0 .edge-thickness-thick{stroke-width:3.5px;}#mermaid-0 .edge-pattern-solid{stroke-dasharray:0;}#mermaid-0 .edge-pattern-dashed{stroke-dasharray:3;}#mermaid-0 .edge-pattern-dotted{stroke-dasharray:2;}#mermaid-0 .marker{fill:#000000;stroke:#000000;}#mermaid-0 .marker.cross{stroke:#000000;}#mermaid-0 svg{font-family:"trebuchet ms",verdana,arial,sans-serif;font-size:16px;}#mermaid-0 .entityBox{fill:#cde498;stroke:#13540c;}#mermaid-0 .attributeBoxOdd{fill:#ffffff;stroke:#13540c;}#mermaid-0 .attributeBoxEven{fill:#f2f2f2;stroke:#13540c;}#mermaid-0 .relationshipLabelBox{fill:hsl(78.1578947368, 58.4615384615%, 84.5098039216%);opacity:0.7;background-color:hsl(78.1578947368, 58.4615384615%, 84.5098039216%);}#mermaid-0 .relationshipLabelBox rect{opacity:0.5;}#mermaid-0 .relationshipLine{stroke:#000000;}#mermaid-0 .entityTitleText{text-anchor:middle;font-size:18px;fill:#000000;}#mermaid-0 :root{--mermaid-font-family:"trebuchet ms",verdana,arial,sans-serif;}</style><g/><defs><marker orient="auto" markerHeight="18" markerWidth="18" refY="9" refX="0" id="ONLY_ONE_START"><path d="M9,0 L9,18 M15,0 L15,18" fill="none" stroke="gray"/></marker></defs><defs><marker orient="auto" markerHeight="18" markerWidth="18" refY="9" refX="18" id="ONLY_ONE_END"><path d="M3,0 L3,18 M9,0 L9,18" fill="none" stroke="gray"/></marker></defs><defs><marker orient="auto" markerHeight="18" markerWidth="30" refY="9" refX="0" id="ZERO_OR_ONE_START"><circle r="6" cy="9" cx="21" fill="white" stroke="gray"/><path d="M9,0 L9,18" fill="none" stroke="gray"/></marker></defs><defs><marker orient="auto" markerHeight="18" markerWidth="30" refY="9" refX="30" id="ZERO_OR_ONE_END"><circle r="6" cy="9" cx="9" fill="white" stroke="gray"/><path d="M21,0 L21,18" fill="none" stroke="gray"/></marker></defs><defs><marker orient="auto" markerHeight="36" markerWidth="45" refY="18" refX="18" id="ONE_OR_MORE_START"><path d="M0,18 Q 18,0 36,18 Q 18,36 0,18 M42,9 L42,27" fill="none" stroke="gray"/></marker></defs><defs><marker orient="auto" markerHeight="36" markerWidth="45" refY="18" refX="27" id="ONE_OR_MORE_END"><path d="M3,9 L3,27 M9,18 Q27,0 45,18 Q27,36 9,18" fill="none" stroke="gray"/></marker></defs><defs><marker orient="auto" markerHeight="36" markerWidth="57" refY="18" refX="18" id="ZERO_OR_MORE_START"><circle r="6" cy="18" cx="48" fill="white" stroke="gray"/><path d="M0,18 Q18,0 36,18 Q18,36 0,18" fill="none" stroke="gray"/></marker></defs><defs><marker orient="auto" markerHeight="36" markerWidth="57" refY="18" refX="39" id="ZERO_OR_MORE_END"><circle r="6" cy="18" cx="9" fill="white" stroke="gray"/><path d="M21,18 Q39,0 57,18 Q39,36 21,18" fill="none" stroke="gray"/></marker></defs><path style="stroke: gray; fill: none;" marker-start="url(#ZERO_OR_MORE_START)" marker-end="url(#ONLY_ONE_END)" d="M81.6162109375,88L81.6162109375,96.33333333333333C81.6162109375,104.66666666666667,81.6162109375,121.33333333333333,86.0021758497807,138C90.38814076206141,154.66666666666666,99.16007058662281,171.33333333333334,103.5460354989035,179.66666666666666L107.9320004111842,188" class="er relationshipLine"/><path style="stroke: gray; fill: none;" marker-start="url(#ZERO_OR_MORE_START)" marker-end="url(#ONLY_ONE_END)" d="M361.17181469145277,77L367.22340199304,87.16666666666667C373.27498929462735,97.33333333333333,385.3781638978019,117.66666666666667,391.4297511993893,138C397.48133850097656,158.33333333333334,397.48133850097656,178.66666666666666,397.48133850097656,188.83333333333334L397.48133850097656,199" class="er relationshipLine"/><path style="stroke: gray; fill: none;" marker-start="url(#ZERO_OR_MORE_START)" marker-end="url(#ONLY_ONE_END)" d="M317.34667768932525,77L304.02628414214604,87.16666666666667C290.70589059496683,97.33333333333333,264.0651035006084,117.66666666666667,241.46329719301252,136.16666666666666C218.86149088541666,154.66666666666666,200.29866536458334,171.33333333333334,191.01725260416666,179.66666666666666L181.73583984375,188" class="er relationshipLine"/><g transform="translate(65.43669128417969,188 )" id="entity-habits-d3cd3b0b-2de8-4227-a5d9-27fc4cbd739d"><rect height="90" width="132.35903930664062" y="0" x="0" class="er entityBox"/><text style="dominant-baseline: middle; text-anchor: middle; font-size: 12px;" transform="translate(66.17951965332031,12)" y="0" x="0" id="text-entity-habits-d3cd3b0b-2de8-4227-a5d9-27fc4cbd739d" class="er entityLabel">habits</text><rect height="22" width="54.095550537109375" y="24" x="0" class="er attributeBoxOdd"/><text style="dominant-baseline: middle; font-size: 10.2px;" transform="translate(5,35)" y="0" x="0" id="text-entity-habits-d3cd3b0b-2de8-4227-a5d9-27fc4cbd739d-attr-1-type" class="er entityLabel">String</text><rect height="22" width="55.5758056640625" y="24" x="54.095550537109375" class="er attributeBoxOdd"/><text style="dominant-baseline: middle; font-size: 10.2px;" transform="translate(59.095550537109375,35)" y="0" x="0" id="text-entity-habits-d3cd3b0b-2de8-4227-a5d9-27fc4cbd739d-attr-1-name" class="er entityLabel">id</text><rect height="22" width="22.68768310546875" y="24" x="109.67135620117188" class="er attributeBoxOdd"/><text style="dominant-baseline: middle; font-size: 10.2px;" transform="translate(114.67135620117188,35)" y="0" x="0" id="text-entity-habits-d3cd3b0b-2de8-4227-a5d9-27fc4cbd739d-attr-1-key" class="er entityLabel">PK</text><rect height="22" width="54.095550537109375" y="46" x="0" class="er attributeBoxEven"/><text style="dominant-baseline: middle; font-size: 10.2px;" transform="translate(5,57)" y="0" x="0" id="text-entity-habits-d3cd3b0b-2de8-4227-a5d9-27fc4cbd739d-attr-2-type" class="er entityLabel">String</text><rect height="22" width="55.5758056640625" y="46" x="54.095550537109375" class="er attributeBoxEven"/><text style="dominant-baseline: middle; font-size: 10.2px;" transform="translate(59.095550537109375,57)" y="0" x="0" id="text-entity-habits-d3cd3b0b-2de8-4227-a5d9-27fc4cbd739d-attr-2-name" class="er entityLabel">title</text><rect height="22" width="22.68768310546875" y="46" x="109.67135620117188" class="er attributeBoxEven"/><text style="dominant-baseline: middle; font-size: 10.2px;" transform="translate(114.67135620117188,57)" y="0" x="0" id="text-entity-habits-d3cd3b0b-2de8-4227-a5d9-27fc4cbd739d-attr-2-key" class="er entityLabel"/><rect height="22" width="54.095550537109375" y="68" x="0" class="er attributeBoxOdd"/><text style="dominant-baseline: middle; font-size: 10.2px;" transform="translate(5,79)" y="0" x="0" id="text-entity-habits-d3cd3b0b-2de8-4227-a5d9-27fc4cbd739d-attr-3-type" class="er entityLabel">DateTime</text><rect height="22" width="55.5758056640625" y="68" x="54.095550537109375" class="er attributeBoxOdd"/><text style="dominant-baseline: middle; font-size: 10.2px;" transform="translate(59.095550537109375,79)" y="0" x="0" id="text-entity-habits-d3cd3b0b-2de8-4227-a5d9-27fc4cbd739d-attr-3-name" class="er entityLabel">creted_at</text><rect height="22" width="22.68768310546875" y="68" x="109.67135620117188" class="er attributeBoxOdd"/><text style="dominant-baseline: middle; font-size: 10.2px;" transform="translate(114.67135620117188,79)" y="0" x="0" id="text-entity-habits-d3cd3b0b-2de8-4227-a5d9-27fc4cbd739d-attr-3-key" class="er entityLabel"/></g><g transform="translate(20,20 )" id="entity-habitsweekday-8c6c33ae-40b8-45a2-8cf2-26db55da04b6"><rect height="68" width="123.232421875" y="0" x="0" class="er entityBox"/><text style="dominant-baseline: middle; text-anchor: middle; font-size: 12px;" transform="translate(61.6162109375,12)" y="0" x="0" id="text-entity-habitsweekday-8c6c33ae-40b8-45a2-8cf2-26db55da04b6" class="er entityLabel">habit_sweek_day</text><rect height="22" width="39.36158752441406" y="24" x="0" class="er attributeBoxOdd"/><text style="dominant-baseline: middle; font-size: 10.2px;" transform="translate(5,35)" y="0" x="0" id="text-entity-habitsweekday-8c6c33ae-40b8-45a2-8cf2-26db55da04b6-attr-1-type" class="er entityLabel">String</text><rect height="22" width="59.217620849609375" y="24" x="39.36158752441406" class="er attributeBoxOdd"/><text style="dominant-baseline: middle; font-size: 10.2px;" transform="translate(44.36158752441406,35)" y="0" x="0" id="text-entity-habitsweekday-8c6c33ae-40b8-45a2-8cf2-26db55da04b6-attr-1-name" class="er entityLabel">id</text><rect height="22" width="24.653213500976562" y="24" x="98.57920837402344" class="er attributeBoxOdd"/><text style="dominant-baseline: middle; font-size: 10.2px;" transform="translate(103.57920837402344,35)" y="0" x="0" id="text-entity-habitsweekday-8c6c33ae-40b8-45a2-8cf2-26db55da04b6-attr-1-key" class="er entityLabel">PK</text><rect height="22" width="39.36158752441406" y="46" x="0" class="er attributeBoxEven"/><text style="dominant-baseline: middle; font-size: 10.2px;" transform="translate(5,57)" y="0" x="0" id="text-entity-habitsweekday-8c6c33ae-40b8-45a2-8cf2-26db55da04b6-attr-2-type" class="er entityLabel">Int</text><rect height="22" width="59.217620849609375" y="46" x="39.36158752441406" class="er attributeBoxEven"/><text style="dominant-baseline: middle; font-size: 10.2px;" transform="translate(44.36158752441406,57)" y="0" x="0" id="text-entity-habitsweekday-8c6c33ae-40b8-45a2-8cf2-26db55da04b6-attr-2-name" class="er entityLabel">week_day</text><rect height="22" width="24.653213500976562" y="46" x="98.57920837402344" class="er attributeBoxEven"/><text style="dominant-baseline: middle; font-size: 10.2px;" transform="translate(103.57920837402344,57)" y="0" x="0" id="text-entity-habitsweekday-8c6c33ae-40b8-45a2-8cf2-26db55da04b6-attr-2-key" class="er entityLabel"/></g><g transform="translate(343.54681396484375,199 )" id="entity-days-ddeac245-998d-4cda-8efa-9b53329993ad"><rect height="68" width="107.86904907226562" y="0" x="0" class="er entityBox"/><text style="dominant-baseline: middle; text-anchor: middle; font-size: 12px;" transform="translate(53.93452453613281,12)" y="0" x="0" id="text-entity-days-ddeac245-998d-4cda-8efa-9b53329993ad" class="er entityLabel">days</text><rect height="22" width="54.095550537109375" y="24" x="0" class="er attributeBoxOdd"/><text style="dominant-baseline: middle; font-size: 10.2px;" transform="translate(5,35)" y="0" x="0" id="text-entity-days-ddeac245-998d-4cda-8efa-9b53329993ad-attr-1-type" class="er entityLabel">String</text><rect height="22" width="31.0858154296875" y="24" x="54.095550537109375" class="er attributeBoxOdd"/><text style="dominant-baseline: middle; font-size: 10.2px;" transform="translate(59.095550537109375,35)" y="0" x="0" id="text-entity-days-ddeac245-998d-4cda-8efa-9b53329993ad-attr-1-name" class="er entityLabel">id</text><rect height="22" width="22.68768310546875" y="24" x="85.18136596679688" class="er attributeBoxOdd"/><text style="dominant-baseline: middle; font-size: 10.2px;" transform="translate(90.18136596679688,35)" y="0" x="0" id="text-entity-days-ddeac245-998d-4cda-8efa-9b53329993ad-attr-1-key" class="er entityLabel">PK</text><rect height="22" width="54.095550537109375" y="46" x="0" class="er attributeBoxEven"/><text style="dominant-baseline: middle; font-size: 10.2px;" transform="translate(5,57)" y="0" x="0" id="text-entity-days-ddeac245-998d-4cda-8efa-9b53329993ad-attr-2-type" class="er entityLabel">DateTime</text><rect height="22" width="31.0858154296875" y="46" x="54.095550537109375" class="er attributeBoxEven"/><text style="dominant-baseline: middle; font-size: 10.2px;" transform="translate(59.095550537109375,57)" y="0" x="0" id="text-entity-days-ddeac245-998d-4cda-8efa-9b53329993ad-attr-2-name" class="er entityLabel">date</text><rect height="22" width="22.68768310546875" y="46" x="85.18136596679688" class="er attributeBoxEven"/><text style="dominant-baseline: middle; font-size: 10.2px;" transform="translate(90.18136596679688,57)" y="0" x="0" id="text-entity-days-ddeac245-998d-4cda-8efa-9b53329993ad-attr-2-key" class="er entityLabel"/></g><g transform="translate(297.48133850097656,31 )" id="entity-dayhabits-e9a84aae-a34a-48b0-8798-119a57564af5"><rect height="46" width="100" y="0" x="0" class="er entityBox"/><text style="dominant-baseline: middle; text-anchor: middle; font-size: 12px;" transform="translate(50,12)" y="0" x="0" id="text-entity-dayhabits-e9a84aae-a34a-48b0-8798-119a57564af5" class="er entityLabel">day_habits</text><rect height="22" width="44.39861551920573" y="24" x="0" class="er attributeBoxOdd"/><text style="dominant-baseline: middle; font-size: 10.2px;" transform="translate(5,35)" y="0" x="0" id="text-entity-dayhabits-e9a84aae-a34a-48b0-8798-119a57564af5-attr-1-type" class="er entityLabel">String</text><rect height="22" width="25.911142985026043" y="24" x="44.39861551920573" class="er attributeBoxOdd"/><text style="dominant-baseline: middle; font-size: 10.2px;" transform="translate(49.39861551920573,35)" y="0" x="0" id="text-entity-dayhabits-e9a84aae-a34a-48b0-8798-119a57564af5-attr-1-name" class="er entityLabel">id</text><rect height="22" width="29.69024149576823" y="24" x="70.30975850423177" class="er attributeBoxOdd"/><text style="dominant-baseline: middle; font-size: 10.2px;" transform="translate(75.30975850423177,35)" y="0" x="0" id="text-entity-dayhabits-e9a84aae-a34a-48b0-8798-119a57564af5-attr-1-key" class="er entityLabel">PK</text></g><rect height="14" width="27.96875" y="133.108642578125" x="72.5958023071289" class="er relationshipLabelBox"/><text style="text-anchor: middle; dominant-baseline: middle; font-size: 12px;" y="140.108642578125" x="86.5801773071289" id="rel1" class="er relationshipLabel">habit</text><rect height="14" width="19.990234375" y="127.78829956054688" x="380.4295349121094" class="er relationshipLabelBox"/><text style="text-anchor: middle; dominant-baseline: middle; font-size: 12px;" y="134.78829956054688" x="390.4246520996094" id="rel2" class="er relationshipLabel">day</text><rect height="14" width="27.96875" y="123.76301574707031" x="234.12899780273438" class="er relationshipLabelBox"/><text style="text-anchor: middle; dominant-baseline: middle; font-size: 12px;" y="130.7630157470703" x="248.11337280273438" id="rel3" class="er relationshipLabel">habit</text></svg>